<svg width="894" height="61" viewBox="0 0 894 61" fill="none" xmlns="http://www.w3.org/2000/svg">
  <g>
    <path d="M40.3963 21.814C39.9259 20.9214 36.1073 19.6699 35.1995 20.1109C35.1995 20.1109 31.8183 23.8206 31.1283 25.9245C30.4383 28.0293 30.1294 34.7926 32.9608 35.72C35.7931 36.6483 39.5465 31.0133 40.2356 28.9094C40.9265 26.8055 40.3963 21.814 40.3963 21.814Z" fill="#0FD4CC"/>
    <path d="M40.7379 17.8693C40.0363 17.6399 38.9973 17.2989 38.9973 17.2989C38.9973 17.2989 37.9583 16.958 37.2567 16.7286C36.5551 16.4983 36.2632 16.8633 36.2632 16.8633L35.1992 20.1116L37.7976 20.9631L40.396 21.8147L41.46 18.5664C41.46 18.5664 41.4395 18.0996 40.7379 17.8693Z" fill="#202020"/>
    <path d="M136.148 40.1285C135.519 39.3385 131.536 38.8181 130.725 39.4198C130.725 39.4198 128.091 43.6927 127.804 45.8885C127.518 48.0844 128.469 54.7879 131.424 55.1735C134.379 55.5591 137.022 49.326 137.308 47.1302C137.595 44.9343 136.148 40.1285 136.148 40.1285Z" fill="#0FD4CC"/>
    <path d="M135.752 36.1884C135.02 36.0929 133.935 35.951 133.935 35.951C133.935 35.951 132.851 35.8091 132.119 35.7136C131.387 35.6181 131.167 36.0304 131.167 36.0304L130.725 39.4197L133.435 39.7741L136.146 40.1284L136.589 36.7392C136.589 36.7392 136.484 36.284 135.752 36.1884Z" fill="#202020"/>
    <path d="M246.891 43.9245C246.103 43.2925 242.103 43.6638 241.446 44.4297C241.446 44.4297 239.819 49.1784 240.024 51.3832C240.228 53.5888 242.635 59.9166 245.602 59.6408C248.57 59.3649 249.772 52.7025 249.567 50.4977C249.362 48.2929 246.891 43.9245 246.891 43.9245Z" fill="#0FD4CC"/>
    <path d="M245.634 40.1697C244.898 40.2375 243.809 40.3393 243.809 40.3393C243.809 40.3393 242.72 40.4401 241.985 40.5089C241.25 40.5767 241.127 41.0275 241.127 41.0275L241.443 44.431L244.165 44.1784L246.888 43.9258L246.572 40.5223C246.572 40.5223 246.368 40.101 245.634 40.1697Z" fill="#202020"/>
    <path d="M301.639 41.0928C300.792 40.5438 296.849 41.3159 296.272 42.1443C296.272 42.1443 295.132 47.0322 295.558 49.2057C295.984 51.3793 299.016 57.4321 301.941 56.859C304.866 56.286 305.39 49.536 304.965 47.3625C304.538 45.189 301.639 41.0928 301.639 41.0928Z" fill="#EFCA23"/>
    <path d="M300.012 37.4821C299.287 37.624 298.215 37.8347 298.215 37.8347C298.215 37.8347 297.141 38.0444 296.417 38.1873C295.692 38.3292 295.615 38.7898 295.615 38.7898L296.272 42.1442L298.955 41.6185L301.639 41.0927L300.982 37.7392C300.983 37.7374 300.737 37.3393 300.012 37.4821Z" fill="#202020"/>
    <path d="M356.906 32.9318C355.999 32.49 352.178 33.7361 351.707 34.6287C351.707 34.6287 351.171 39.6193 351.858 41.725C352.545 43.8306 356.292 49.4693 359.125 48.5454C361.958 47.6207 361.657 40.8573 360.97 38.7517C360.282 36.6451 356.906 32.9318 356.906 32.9318Z" fill="#0FD4CC"/>
    <path d="M354.852 29.5464C354.15 29.7758 353.11 30.115 353.11 30.115C353.11 30.115 352.07 30.4542 351.369 30.6836C350.667 30.913 350.646 31.3798 350.646 31.3798L351.707 34.6289L354.306 33.781L356.905 32.933L355.845 29.6838C355.845 29.6821 355.554 29.317 354.852 29.5464Z" fill="#202020"/>
    <path d="M412.445 18.828C411.49 18.5013 407.854 20.2115 407.496 21.155C407.496 21.155 407.582 26.1733 408.524 28.1781C409.467 30.182 413.883 35.3137 416.58 34.0453C419.277 32.7769 418.141 26.1028 417.198 24.0989C416.255 22.095 412.445 18.828 412.445 18.828Z" fill="#EFCA23"/>
    <path d="M409.987 15.7244C409.319 16.0386 408.329 16.5037 408.329 16.5037C408.329 16.5037 407.339 16.9687 406.672 17.2829C406.004 17.5971 406.041 18.0631 406.041 18.0631L407.496 21.156L409.971 19.992L412.445 18.8281L410.99 15.7351C410.989 15.7369 410.654 15.4102 409.987 15.7244Z" fill="#202020"/>
    <path d="M86.2951 33.3624C85.7318 32.5251 81.8007 31.6896 80.9456 32.2261C80.9456 32.2261 77.9813 36.2759 77.5207 38.4423C77.0601 40.6086 77.4769 47.3657 80.3922 47.9852C83.3075 48.6047 86.4361 42.6009 86.8958 40.4346C87.3564 38.2682 86.2951 33.3624 86.2951 33.3624Z" fill="#EFCA23"/>
    <path d="M86.2135 29.4033C85.4914 29.2498 84.422 29.0222 84.422 29.0222C84.422 29.0222 83.3518 28.7945 82.6297 28.641C81.9076 28.4875 81.6558 28.8811 81.6558 28.8811L80.9453 32.224L83.6196 32.7926L86.2939 33.3612L87.0044 30.0183C87.0044 30.0183 86.9356 29.5568 86.2135 29.4033Z" fill="#202020"/>
    <path d="M192.864 44.9245C192.121 44.2417 188.103 44.3452 187.397 45.0655C187.397 45.0655 185.458 49.6946 185.515 51.9092C185.572 54.1229 187.552 60.5979 190.531 60.5203C193.51 60.4435 195.153 53.8756 195.096 51.662C195.039 49.4474 192.864 44.9245 192.864 44.9245Z" fill="#EFCA23"/>
    <path d="M191.861 41.0924C191.123 41.1111 190.029 41.1397 190.029 41.1397C190.029 41.1397 188.936 41.1683 188.197 41.187C187.459 41.2057 187.307 41.6476 187.307 41.6476L187.395 45.0645L190.128 44.994L192.861 44.9235L192.773 41.5066C192.773 41.5066 192.599 41.0736 191.861 41.0924Z" fill="#202020"/>
    <path d="M446.307 0C443.962 1.15861 441.676 2.23957 439.506 3.23484C400.098 21.3094 356.042 29.6696 313.251 34.7575C259.663 41.1299 205.175 41.6556 151.446 36.6963C106.724 32.5688 61.17 24.9477 19.1787 8.47895C12.7456 5.95731 6.28311 3.1902 0 0.0535547V2.20833C0.87744 2.64125 1.74774 3.06613 2.59929 3.47405C41.7297 22.2181 85.7892 30.8354 128.551 36.2152C184.609 43.2686 241.739 43.847 297.965 38.4119C343.371 34.0229 389.802 26.1233 432.165 8.60302C436.921 6.6357 441.659 4.52913 446.308 2.23332V0H446.307Z" fill="#202020"/>
  </g>
  <g transform="translate(447 0)">
    <path d="M40.3944 21.814C39.9239 20.9214 36.1053 19.6699 35.1975 20.1109C35.1975 20.1109 31.8163 23.8206 31.1263 25.9245C30.4363 28.0293 30.1275 34.7926 32.9589 35.72C35.7911 36.6483 39.5446 31.0133 40.2337 28.9094C40.9246 26.8055 40.3944 21.814 40.3944 21.814Z" fill="#FA352D"/>
    <path d="M40.7379 17.8693C40.0363 17.6399 38.9973 17.2989 38.9973 17.2989C38.9973 17.2989 37.9583 16.958 37.2567 16.7286C36.5551 16.4983 36.2632 16.8633 36.2632 16.8633L35.1992 20.1116L37.7976 20.9631L40.396 21.8147L41.46 18.5664C41.46 18.5664 41.4395 18.0996 40.7379 17.8693Z" fill="#202020"/>
    <path d="M136.15 40.1285C135.521 39.3385 131.538 38.8181 130.727 39.4198C130.727 39.4198 128.093 43.6927 127.806 45.8885C127.52 48.0844 128.471 54.7879 131.426 55.1735C134.381 55.5591 137.024 49.326 137.31 47.1302C137.597 44.9343 136.15 40.1285 136.15 40.1285Z" fill="#EFCA23"/>
    <path d="M135.754 36.1884C135.022 36.0929 133.937 35.951 133.937 35.951C133.937 35.951 132.853 35.8091 132.121 35.7136C131.389 35.6181 131.169 36.0304 131.169 36.0304L130.727 39.4197L133.437 39.7741L136.148 40.1284L136.591 36.7392C136.591 36.7392 136.486 36.284 135.754 36.1884Z" fill="#202020"/>
    <path d="M246.889 43.9245C246.101 43.2925 242.101 43.6638 241.444 44.4297C241.444 44.4297 239.817 49.1784 240.022 51.3832C240.226 53.5888 242.633 59.9166 245.601 59.6408C248.568 59.3649 249.77 52.7025 249.565 50.4977C249.36 48.2929 246.889 43.9245 246.889 43.9245Z" fill="#FA352D"/>
    <path d="M245.632 40.1697C244.896 40.2375 243.807 40.3393 243.807 40.3393C243.807 40.3393 242.718 40.4401 241.983 40.5089C241.248 40.5767 241.125 41.0275 241.125 41.0275L241.441 44.431L244.163 44.1784L246.886 43.9258L246.57 40.5223C246.57 40.5223 246.366 40.101 245.632 40.1697Z" fill="#202020"/>
    <path d="M301.637 41.0928C300.79 40.5438 296.847 41.3159 296.27 42.1443C296.27 42.1443 295.13 47.0322 295.556 49.2057C295.982 51.3793 299.014 57.4321 301.939 56.859C304.864 56.286 305.388 49.536 304.963 47.3625C304.536 45.189 301.637 41.0928 301.637 41.0928Z" fill="#EFCA23"/>
    <path d="M300.01 37.4821C299.285 37.624 298.213 37.8347 298.213 37.8347C298.213 37.8347 297.139 38.0444 296.415 38.1873C295.69 38.3292 295.613 38.7898 295.613 38.7898L296.27 42.1442L298.953 41.6185L301.637 41.0927L300.98 37.7392C300.981 37.7374 300.735 37.3393 300.01 37.4821Z" fill="#202020"/>
    <path d="M356.906 32.9318C355.999 32.49 352.178 33.7361 351.707 34.6287C351.707 34.6287 351.171 39.6193 351.858 41.725C352.545 43.8306 356.292 49.4693 359.125 48.5454C361.958 47.6207 361.657 40.8573 360.97 38.7517C360.282 36.6451 356.906 32.9318 356.906 32.9318Z" fill="#0FD4CC"/>
    <path d="M354.854 29.5464C354.152 29.7758 353.112 30.115 353.112 30.115C353.112 30.115 352.072 30.4542 351.371 30.6836C350.669 30.913 350.648 31.3798 350.648 31.3798L351.709 34.6289L354.308 33.781L356.907 32.933L355.847 29.6838C355.847 29.6821 355.556 29.317 354.854 29.5464Z" fill="#202020"/>
    <path d="M412.445 18.828C411.49 18.5013 407.854 20.2115 407.496 21.155C407.496 21.155 407.582 26.1733 408.524 28.1781C409.467 30.182 413.883 35.3137 416.58 34.0453C419.277 32.7769 418.141 26.1028 417.198 24.0989C416.255 22.095 412.445 18.828 412.445 18.828Z" fill="#FF6928"/>
    <path d="M409.989 15.7244C409.321 16.0386 408.331 16.5037 408.331 16.5037C408.331 16.5037 407.341 16.9687 406.674 17.2829C406.006 17.5971 406.043 18.0631 406.043 18.0631L407.498 21.156L409.973 19.992L412.447 18.8281L410.992 15.7351C410.991 15.7369 410.656 15.4102 409.989 15.7244Z" fill="#202020"/>
    <path d="M86.297 33.3624C85.7338 32.5251 81.8027 31.6896 80.9476 32.2261C80.9476 32.2261 77.9832 36.2759 77.5226 38.4423C77.062 40.6086 77.4789 47.3657 80.3942 47.9852C83.3094 48.6047 86.438 42.6009 86.8977 40.4346C87.3583 38.2682 86.297 33.3624 86.297 33.3624Z" fill="#FF6928"/>
    <path d="M86.2135 29.4033C85.4914 29.2498 84.422 29.0222 84.422 29.0222C84.422 29.0222 83.3518 28.7945 82.6297 28.641C81.9076 28.4875 81.6558 28.8811 81.6558 28.8811L80.9453 32.224L83.6196 32.7926L86.2939 33.3612L87.0044 30.0183C87.0044 30.0183 86.9356 29.5568 86.2135 29.4033Z" fill="#202020"/>
    <path d="M192.862 44.9245C192.119 44.2417 188.102 44.3452 187.395 45.0655C187.395 45.0655 185.456 49.6946 185.513 51.9092C185.57 54.1229 187.55 60.5979 190.529 60.5203C193.508 60.4435 195.151 53.8756 195.094 51.662C195.037 49.4474 192.862 44.9245 192.862 44.9245Z" fill="#0FD4CC"/>
    <path d="M191.863 41.0924C191.125 41.1111 190.031 41.1397 190.031 41.1397C190.031 41.1397 188.938 41.1683 188.199 41.187C187.461 41.2057 187.309 41.6476 187.309 41.6476L187.397 45.0645L190.13 44.994L192.863 44.9235L192.775 41.5066C192.775 41.5066 192.601 41.0736 191.863 41.0924Z" fill="#202020"/>
    <path d="M446.307 0C443.962 1.15861 441.676 2.23957 439.506 3.23484C400.098 21.3094 356.042 29.6696 313.251 34.7575C259.663 41.1299 205.175 41.6556 151.446 36.6963C106.724 32.5688 61.17 24.9477 19.1787 8.47895C12.7456 5.95731 6.28311 3.1902 0 0.0535547L0 2.20833C0.87744 2.64125 1.74774 3.06613 2.59929 3.47405C41.7297 22.2181 85.7892 30.8354 128.551 36.2152C184.609 43.2686 241.739 43.847 297.965 38.4119C343.371 34.0229 389.802 26.1233 432.165 8.60302C436.921 6.6357 441.659 4.52913 446.308 2.23332V0L446.307 0Z" fill="#202020"/>
  </g>
</svg>
